<?xml version="1.0" encoding="utf-8"?>
<!-- Generator: Adobe Illustrator 23.0.2, SVG Export Plug-In . SVG Version: 6.00 Build 0)  -->
<svg version="1.1" id="Layer_1" xmlns="http://www.w3.org/2000/svg" xmlns:xlink="http://www.w3.org/1999/xlink" x="0px" y="0px"
	 viewBox="0 0 81 91" style="enable-background:new 0 0 81 91;" xml:space="preserve">
<style type="text/css">
	.st0{fill-rule:evenodd;clip-rule:evenodd;fill:#5A150B;}
	.st1{fill-rule:evenodd;clip-rule:evenodd;fill:#FFDC00;}
	.st2{fill-rule:evenodd;clip-rule:evenodd;fill:#E2000F;}
	.st3{fill-rule:evenodd;clip-rule:evenodd;fill:#FFFFFF;}
</style>
<g>
	<path class="st0" d="M75.8,27.8L21,13.1c-0.7-0.2-1.5-0.1-2.1,0.3l0,0c-0.6,0.3-1.1,0.9-1.3,1.6L2.9,69.9c-0.2,0.7-0.1,1.5,0.3,2.1
		c0.3,0.6,0.9,1.1,1.6,1.3l54.8,14.7c0.7,0.2,1.5,0.1,2.1-0.3c0.6-0.3,1.1-0.9,1.3-1.6l14.7-54.8c0.2-0.7,0.1-1.5-0.3-2.1
		C77.1,28.5,76.5,28,75.8,27.8L75.8,27.8z M21.7,10.5l54.8,14.7c1.5,0.4,2.6,1.3,3.3,2.6c0.7,1.2,0.9,2.7,0.6,4.1L65.7,86.7
		c-0.4,1.5-1.3,2.6-2.6,3.3c-1.2,0.7-2.7,0.9-4.1,0.6L4.2,75.8c-1.5-0.4-2.6-1.3-3.3-2.5c-0.7-1.2-0.9-2.7-0.6-4.1L15,14.4
		c0.4-1.5,1.3-2.6,2.5-3.3h0C18.7,10.3,20.2,10.1,21.7,10.5z"/>
	<path class="st1" d="M76.1,26.5L21.3,11.8c-2.2-0.6-4.4,0.7-5,2.9L1.6,69.5c-0.6,2.2,0.7,4.4,2.9,5l54.8,14.7
		c2.2,0.6,4.4-0.7,5-2.9L79,31.5C79.6,29.3,78.3,27.1,76.1,26.5z"/>
	<path class="st0" d="M15.6,36.1h-1.4v-1.4h4.2v1.4H17v7.6h-1.3V36.1L15.6,36.1z M20.9,39.9v3.8h-1.3v-9h1.3v3.8h1.6v-3.8h1.3v9
		h-1.3v-3.8H20.9L20.9,39.9z M25,43.7v-9h3.8v1.4h-2.5v2.4h1.8v1.4h-1.8v2.4h2.5v1.4H25z"/>
	<path class="st0" d="M16.3,53.2v5.3h-1.9V46h1.9v5.3h2.3V46h1.9v12.5h-1.9v-5.3H16.3L16.3,53.2z M25.1,45.8c0.8,0,1.5,0.3,2.1,0.9
		c0.6,0.6,0.9,1.3,0.9,2.1v6.8c0,0.8-0.3,1.5-0.9,2.1c-0.6,0.6-1.3,0.9-2.1,0.9c-0.8,0-1.5-0.3-2.1-0.9c-0.6-0.6-0.9-1.3-0.9-2.1
		v-6.8c0-0.8,0.3-1.5,0.9-2.1C23.6,46.1,24.3,45.8,25.1,45.8L25.1,45.8z M26.1,48.8c0-0.3-0.1-0.6-0.3-0.8c-0.2-0.2-0.5-0.3-0.8-0.3
		c-0.3,0-0.6,0.1-0.8,0.3c-0.2,0.2-0.3,0.5-0.3,0.8v6.9c0,0.3,0.1,0.6,0.3,0.8c0.2,0.2,0.5,0.3,0.8,0.3c0.3,0,0.6-0.1,0.8-0.3
		c0.2-0.2,0.3-0.5,0.3-0.8V48.8L26.1,48.8z M32.8,58.6c-0.8,0-1.5-0.3-2.1-0.9c-0.6-0.6-0.9-1.3-0.9-2.1V46h1.8v9.7
		c0,0.3,0.1,0.6,0.3,0.8c0.2,0.2,0.5,0.3,0.8,0.3c0.3,0,0.6-0.1,0.8-0.3c0.2-0.2,0.3-0.5,0.3-0.8V46h2v9.7c0,0.8-0.3,1.5-0.9,2.1
		C34.3,58.4,33.6,58.6,32.8,58.6L32.8,58.6z M43.6,55.4c0,0.9-0.2,1.6-0.7,2.2c-0.3,0.4-0.7,0.7-1.3,0.9c-0.3,0.1-0.7,0.1-1,0.1
		c-0.7,0-1.4-0.2-1.8-0.6c-0.4-0.3-0.7-0.7-1-1.2c-0.2-0.5-0.4-1.1-0.4-1.8l1.8-0.1c0.1,0.7,0.3,1.3,0.6,1.6
		c0.2,0.2,0.5,0.4,0.8,0.4c0.4,0,0.7-0.2,1-0.6c0.1-0.2,0.2-0.5,0.2-0.8c0-0.5-0.2-1-0.7-1.6c-0.4-0.4-0.9-0.9-1.7-1.6
		c-0.6-0.6-1.1-1.2-1.3-1.6c-0.3-0.5-0.4-1.1-0.4-1.8c0-1.1,0.4-2,1.2-2.6c0.5-0.4,1.1-0.5,1.8-0.5c0.7,0,1.3,0.2,1.7,0.5
		c0.4,0.2,0.7,0.6,0.9,1c0.2,0.4,0.4,0.9,0.4,1.4L41.7,49c-0.1-0.5-0.2-0.9-0.4-1.2c-0.2-0.2-0.4-0.3-0.8-0.3
		c-0.3,0-0.6,0.2-0.8,0.5c-0.1,0.2-0.2,0.6-0.2,0.9c0,0.6,0.2,1.2,0.7,1.7c0.2,0.2,0.5,0.5,0.8,0.8c0.4,0.4,0.7,0.6,0.9,0.8
		c0.5,0.5,0.8,0.9,1.1,1.4c0.1,0.2,0.2,0.4,0.3,0.6C43.5,54.6,43.6,55,43.6,55.4L43.6,55.4z M45.1,58.5V45.9h5.4v1.9H47v3.4h2.5v1.9
		H47v3.4h3.5v1.9H45.1z"/>
	<path class="st0" d="M54.7,49.4c0.6,0,1.1,0.2,1.5,0.6c0.4,0.4,0.6,0.9,0.6,1.5v4.9c0,0.6-0.2,1.1-0.6,1.5
		c-0.4,0.4-0.9,0.6-1.5,0.6c-0.6,0-1.1-0.2-1.5-0.6c-0.4-0.4-0.6-0.9-0.6-1.5v-4.9c0-0.6,0.2-1.1,0.6-1.5
		C53.6,49.6,54.1,49.4,54.7,49.4L54.7,49.4z M55.4,51.6c0-0.2-0.1-0.4-0.2-0.5c-0.2-0.1-0.3-0.2-0.5-0.2c-0.2,0-0.4,0.1-0.6,0.2
		c-0.2,0.2-0.2,0.3-0.2,0.5v4.9c0,0.2,0.1,0.4,0.2,0.5c0.2,0.1,0.3,0.2,0.6,0.2c0.2,0,0.4-0.1,0.5-0.2c0.1-0.2,0.2-0.3,0.2-0.5V51.6
		L55.4,51.6z M59.4,58.5H58v-9h3.8v1.4h-2.5v2.4h1.8v1.4h-1.8V58.5z"/>
	<path class="st0" d="M16.3,69.9v4h-1.9V61.3h1.9v4.5l2.3-4.5h2L18,66.4l3,7.4h-2.2l-2-5.1L16.3,69.9L16.3,69.9z M24.5,68.5v5.3
		h-1.9V61.3h1.9v5.3h2.3v-5.3h1.9v12.5h-1.9v-5.3H24.5L24.5,68.5z M32.7,71l-0.5,2.9h-2l2.1-12.5H35l2.1,12.5h-2L34.6,71H32.7
		L32.7,71z M33.6,64.2l-0.7,4.9h1.4L33.6,64.2L33.6,64.2z M40.5,73.9h-1.9V61.3h2.7l1.8,9l1.7-9h2.6v12.6h-1.9V66l-1.6,7.9h-1.5
		L40.5,66V73.9L40.5,73.9z M51.4,71L51,73.9h-2l2.1-12.5h2.6l2.1,12.5h-2L53.4,71H51.4L51.4,71z M52.4,64.2l-0.7,4.9h1.4L52.4,64.2
		L52.4,64.2z M59.6,61.3l2.5,8.4v-8.4H64v12.6h-2l-2.6-8v8h-1.9V61.3H59.6z"/>
	<path class="st0" d="M40,40.6L68.4,33c0.2-0.1,0.4-0.2,0.5-0.4c0.1-0.2,0.1-0.4,0.1-0.6L61.3,3.7c-0.1-0.2-0.2-0.4-0.4-0.5
		c-0.2-0.1-0.4-0.1-0.6-0.1L32,10.8l0,0c-0.2,0.1-0.4,0.2-0.5,0.3v0c-0.1,0.2-0.1,0.4-0.1,0.6v0l7.6,28.4c0.1,0.2,0.2,0.4,0.4,0.5
		C39.6,40.7,39.8,40.7,40,40.6L40,40.6z M69.1,35.7l-28.4,7.6c-0.9,0.2-1.9,0.1-2.7-0.4c-0.8-0.4-1.4-1.2-1.6-2.1l-7.6-28.4v0
		c-0.2-0.9-0.1-1.9,0.4-2.7l0,0c0.4-0.8,1.2-1.4,2.1-1.6h0l28.4-7.6c0.9-0.2,1.9-0.1,2.7,0.4C63.1,1.3,63.8,2.1,64,3l7.6,28.4
		c0.2,0.9,0.1,1.9-0.4,2.7C70.8,34.8,70.1,35.4,69.1,35.7z"/>
	<path class="st2" d="M40.4,42l28.4-7.6c1.1-0.3,1.8-1.5,1.5-2.6L62.7,3.3c-0.3-1.1-1.5-1.8-2.6-1.5L31.7,9.5
		c-1.1,0.3-1.8,1.5-1.5,2.6l7.6,28.4C38.1,41.6,39.2,42.3,40.4,42z"/>
	<path class="st3" d="M36.7,24.3h-1.9v0.3h5.6v-0.3h-1.8V10.7h-0.8c-1.3,1.4-3.2,2.5-4.5,3.3v0.3c1.2-0.6,2.9-1.5,3.2-1.5
		c0.2,0,0.2,0.2,0.2,0.5V24.3z"/>
	<path class="st3" d="M41.9,19.5c0-1.9,0.3-4.9,2.9-4.9c2.7,0,2.9,3,2.9,5.9c0,0.3,0,0.6-0.1,0.9c-0.4,1.4-1.7,2.5-3,2.5
		C42.3,23.9,41.9,21.6,41.9,19.5L41.9,19.5z M40.8,30.4c4.9-0.8,9-4.6,9-9.9c0-3.3-1.4-6.2-5-6.2c-3,0-5,2.4-5,5.2
		c0,3.1,2,4.9,4.5,4.9c1.6,0,2.8-1,3.4-2h0c-0.5,4.7-2.4,7-7,7.7L40.8,30.4z"/>
	<path class="st3" d="M60.9,22.7h-0.5l-0.4,3h-9.9c4.6-5.5,10.2-6.8,10.2-11.6c0-3.6-2.8-5.6-6-5.6c-3.1,0-5.8,1.5-5.8,5
		c-0.1,1.1,0.7,2.4,1.7,2.4c0.6,0.1,1.5-0.4,1.5-1.4c0-0.9-0.6-1.2-1.4-1.2c-0.6,0-0.9-0.1-0.9-0.8c0-2.2,2.3-3.6,4.2-3.6
		c2.8,0,4.1,2.2,4.1,4.9c0,7.2-7.7,9.1-9.5,14.2h12L60.9,22.7z"/>
	<path class="st3" d="M65.8,29.3h-0.3l-0.3,2.2H58c3.3-4,7.4-4.9,7.4-8.4c0-2.6-2-4.1-4.3-4.1c-2.2,0-4.2,1.1-4.2,3.6
		c-0.1,0.8,0.5,1.7,1.2,1.7c0.5,0,1.1-0.3,1.1-1c0-0.6-0.5-0.9-1-0.9c-0.4,0-0.7-0.1-0.7-0.6c0-1.6,1.7-2.6,3.1-2.6
		c2,0,2.9,1.6,2.9,3.5c0,5.2-5.5,6.6-6.9,10.3h8.7L65.8,29.3z"/>
</g>
<path class="st3" d="M68.4,89.1v-2.8h-1v-0.6h2.7v0.6h-1v2.8H68.4L68.4,89.1z M70.5,89.1v-3.4h1l0.6,2.3l0.6-2.3h1v3.4h-0.6v-2.7
	l-0.7,2.7h-0.7l-0.7-2.7v2.7H70.5z"/>
<g>
</g>
<g>
</g>
<g>
</g>
<g>
</g>
<g>
</g>
<g>
</g>
<g>
</g>
<g>
</g>
<g>
</g>
<g>
</g>
<g>
</g>
<g>
</g>
<g>
</g>
<g>
</g>
<g>
</g>
</svg>
